<mxfile host="app.diagrams.net" modified="2021-01-22T11:49:58.604Z" agent="5.0 (Windows)" etag="KK71UkPlXb_UqkxYwgOc" version="14.2.6" type="github" pages="2">
  <diagram id="C5RBs43oDa-KdzZeNtuy" name="Flow Seller">
    <mxGraphModel dx="868" dy="461" grid="1" gridSize="10" guides="1" tooltips="1" connect="1" arrows="1" fold="1" page="1" pageScale="1" pageWidth="827" pageHeight="1169" math="0" shadow="0">
      <root>
        <mxCell id="WIyWlLk6GJQsqaUBKTNV-0" />
        <mxCell id="WIyWlLk6GJQsqaUBKTNV-1" parent="WIyWlLk6GJQsqaUBKTNV-0" />
        <mxCell id="WIyWlLk6GJQsqaUBKTNV-2" value="" style="rounded=0;html=1;jettySize=auto;orthogonalLoop=1;fontSize=11;endArrow=block;endFill=0;endSize=8;strokeWidth=1;shadow=0;labelBackgroundColor=none;edgeStyle=orthogonalEdgeStyle;" parent="WIyWlLk6GJQsqaUBKTNV-1" source="WIyWlLk6GJQsqaUBKTNV-3" target="WIyWlLk6GJQsqaUBKTNV-6" edge="1">
          <mxGeometry relative="1" as="geometry" />
        </mxCell>
        <mxCell id="WIyWlLk6GJQsqaUBKTNV-3" value="Lamp doesn&#39;t work" style="rounded=1;whiteSpace=wrap;html=1;fontSize=12;glass=0;strokeWidth=1;shadow=0;" parent="WIyWlLk6GJQsqaUBKTNV-1" vertex="1">
          <mxGeometry x="160" y="80" width="120" height="40" as="geometry" />
        </mxCell>
        <mxCell id="WIyWlLk6GJQsqaUBKTNV-4" value="Yes" style="rounded=0;html=1;jettySize=auto;orthogonalLoop=1;fontSize=11;endArrow=block;endFill=0;endSize=8;strokeWidth=1;shadow=0;labelBackgroundColor=none;edgeStyle=orthogonalEdgeStyle;" parent="WIyWlLk6GJQsqaUBKTNV-1" source="WIyWlLk6GJQsqaUBKTNV-6" target="WIyWlLk6GJQsqaUBKTNV-10" edge="1">
          <mxGeometry y="20" relative="1" as="geometry">
            <mxPoint as="offset" />
          </mxGeometry>
        </mxCell>
        <mxCell id="WIyWlLk6GJQsqaUBKTNV-5" value="No" style="edgeStyle=orthogonalEdgeStyle;rounded=0;html=1;jettySize=auto;orthogonalLoop=1;fontSize=11;endArrow=block;endFill=0;endSize=8;strokeWidth=1;shadow=0;labelBackgroundColor=none;" parent="WIyWlLk6GJQsqaUBKTNV-1" source="WIyWlLk6GJQsqaUBKTNV-6" target="WIyWlLk6GJQsqaUBKTNV-7" edge="1">
          <mxGeometry y="10" relative="1" as="geometry">
            <mxPoint as="offset" />
          </mxGeometry>
        </mxCell>
        <mxCell id="WIyWlLk6GJQsqaUBKTNV-6" value="Lamp&lt;br&gt;plugged in?" style="rhombus;whiteSpace=wrap;html=1;shadow=0;fontFamily=Helvetica;fontSize=12;align=center;strokeWidth=1;spacing=6;spacingTop=-4;" parent="WIyWlLk6GJQsqaUBKTNV-1" vertex="1">
          <mxGeometry x="170" y="170" width="100" height="80" as="geometry" />
        </mxCell>
        <mxCell id="WIyWlLk6GJQsqaUBKTNV-7" value="Plug in lamp" style="rounded=1;whiteSpace=wrap;html=1;fontSize=12;glass=0;strokeWidth=1;shadow=0;" parent="WIyWlLk6GJQsqaUBKTNV-1" vertex="1">
          <mxGeometry x="320" y="190" width="120" height="40" as="geometry" />
        </mxCell>
        <mxCell id="WIyWlLk6GJQsqaUBKTNV-8" value="No" style="rounded=0;html=1;jettySize=auto;orthogonalLoop=1;fontSize=11;endArrow=block;endFill=0;endSize=8;strokeWidth=1;shadow=0;labelBackgroundColor=none;edgeStyle=orthogonalEdgeStyle;" parent="WIyWlLk6GJQsqaUBKTNV-1" source="WIyWlLk6GJQsqaUBKTNV-10" target="WIyWlLk6GJQsqaUBKTNV-11" edge="1">
          <mxGeometry x="0.3333" y="20" relative="1" as="geometry">
            <mxPoint as="offset" />
          </mxGeometry>
        </mxCell>
        <mxCell id="WIyWlLk6GJQsqaUBKTNV-9" value="Yes" style="edgeStyle=orthogonalEdgeStyle;rounded=0;html=1;jettySize=auto;orthogonalLoop=1;fontSize=11;endArrow=block;endFill=0;endSize=8;strokeWidth=1;shadow=0;labelBackgroundColor=none;" parent="WIyWlLk6GJQsqaUBKTNV-1" source="WIyWlLk6GJQsqaUBKTNV-10" target="WIyWlLk6GJQsqaUBKTNV-12" edge="1">
          <mxGeometry y="10" relative="1" as="geometry">
            <mxPoint as="offset" />
          </mxGeometry>
        </mxCell>
        <mxCell id="WIyWlLk6GJQsqaUBKTNV-10" value="Bulb&lt;br&gt;burned out?" style="rhombus;whiteSpace=wrap;html=1;shadow=0;fontFamily=Helvetica;fontSize=12;align=center;strokeWidth=1;spacing=6;spacingTop=-4;" parent="WIyWlLk6GJQsqaUBKTNV-1" vertex="1">
          <mxGeometry x="170" y="290" width="100" height="80" as="geometry" />
        </mxCell>
        <mxCell id="WIyWlLk6GJQsqaUBKTNV-11" value="Repair Lamp" style="rounded=1;whiteSpace=wrap;html=1;fontSize=12;glass=0;strokeWidth=1;shadow=0;" parent="WIyWlLk6GJQsqaUBKTNV-1" vertex="1">
          <mxGeometry x="160" y="430" width="120" height="40" as="geometry" />
        </mxCell>
        <mxCell id="WIyWlLk6GJQsqaUBKTNV-12" value="Replace Bulb" style="rounded=1;whiteSpace=wrap;html=1;fontSize=12;glass=0;strokeWidth=1;shadow=0;" parent="WIyWlLk6GJQsqaUBKTNV-1" vertex="1">
          <mxGeometry x="320" y="310" width="120" height="40" as="geometry" />
        </mxCell>
      </root>
    </mxGraphModel>
  </diagram>
  <diagram id="thg0UNZJKor6uSar8OhC" name="Flow Buyer">
    <mxGraphModel dx="868" dy="461" grid="1" gridSize="10" guides="1" tooltips="1" connect="1" arrows="1" fold="1" page="1" pageScale="1" pageWidth="850" pageHeight="1100" math="0" shadow="0">
      <root>
        <mxCell id="L0yQjiYWwsw-UEJJT2-9-0" />
        <mxCell id="L0yQjiYWwsw-UEJJT2-9-1" parent="L0yQjiYWwsw-UEJJT2-9-0" />
        <mxCell id="6HOrBpuACaCS4eQV2J5w-0" value="Pool" style="swimlane;html=1;childLayout=stackLayout;startSize=20;rounded=0;shadow=0;labelBackgroundColor=none;strokeWidth=1;fontFamily=Verdana;fontSize=8;align=center;" vertex="1" parent="L0yQjiYWwsw-UEJJT2-9-1">
          <mxGeometry x="70" y="40" width="980" height="750" as="geometry" />
        </mxCell>
        <mxCell id="6HOrBpuACaCS4eQV2J5w-1" style="edgeStyle=orthogonalEdgeStyle;rounded=1;html=1;labelBackgroundColor=none;startArrow=none;startFill=0;startSize=5;endArrow=classicThin;endFill=1;endSize=5;jettySize=auto;orthogonalLoop=1;strokeWidth=1;fontFamily=Verdana;fontSize=8;entryX=0;entryY=0.5;entryDx=0;entryDy=0;exitX=1;exitY=0.5;exitDx=0;exitDy=0;" edge="1" parent="6HOrBpuACaCS4eQV2J5w-0" source="6HOrBpuACaCS4eQV2J5w-17" target="6HOrBpuACaCS4eQV2J5w-25">
          <mxGeometry relative="1" as="geometry">
            <Array as="points">
              <mxPoint x="310" y="570" />
              <mxPoint x="310" y="120" />
            </Array>
          </mxGeometry>
        </mxCell>
        <mxCell id="6HOrBpuACaCS4eQV2J5w-2" style="edgeStyle=orthogonalEdgeStyle;rounded=1;html=1;labelBackgroundColor=none;startArrow=none;startFill=0;startSize=5;endArrow=classicThin;endFill=1;endSize=5;jettySize=auto;orthogonalLoop=1;strokeWidth=1;fontFamily=Verdana;fontSize=8;exitX=0.5;exitY=1;exitDx=0;exitDy=0;" edge="1" parent="6HOrBpuACaCS4eQV2J5w-0" source="6HOrBpuACaCS4eQV2J5w-6" target="6HOrBpuACaCS4eQV2J5w-17">
          <mxGeometry relative="1" as="geometry">
            <mxPoint x="60" y="648" as="sourcePoint" />
            <Array as="points">
              <mxPoint x="80" y="630" />
              <mxPoint x="165" y="630" />
              <mxPoint x="165" y="570" />
            </Array>
          </mxGeometry>
        </mxCell>
        <mxCell id="6HOrBpuACaCS4eQV2J5w-3" value="Lane 1" style="swimlane;html=1;startSize=20;fillColor=#dae8fc;strokeColor=#6c8ebf;" vertex="1" parent="6HOrBpuACaCS4eQV2J5w-0">
          <mxGeometry y="20" width="160" height="730" as="geometry" />
        </mxCell>
        <mxCell id="6HOrBpuACaCS4eQV2J5w-4" style="edgeStyle=orthogonalEdgeStyle;rounded=1;orthogonalLoop=1;jettySize=auto;html=1;exitX=0.5;exitY=1;exitDx=0;exitDy=0;entryX=0.5;entryY=0;entryDx=0;entryDy=0;" edge="1" parent="6HOrBpuACaCS4eQV2J5w-3" source="6HOrBpuACaCS4eQV2J5w-5" target="6HOrBpuACaCS4eQV2J5w-14">
          <mxGeometry relative="1" as="geometry" />
        </mxCell>
        <mxCell id="6HOrBpuACaCS4eQV2J5w-5" value="User" style="rounded=1;whiteSpace=wrap;html=1;shadow=0;labelBackgroundColor=none;strokeWidth=1;fontFamily=Verdana;fontSize=8;align=center;" vertex="1" parent="6HOrBpuACaCS4eQV2J5w-3">
          <mxGeometry x="30" y="300" width="100" height="60" as="geometry" />
        </mxCell>
        <mxCell id="6HOrBpuACaCS4eQV2J5w-6" value="Cart" style="rounded=1;whiteSpace=wrap;html=1;shadow=0;labelBackgroundColor=none;strokeWidth=1;fontFamily=Verdana;fontSize=8;align=center;" vertex="1" parent="6HOrBpuACaCS4eQV2J5w-3">
          <mxGeometry x="30" y="500" width="100" height="60" as="geometry" />
        </mxCell>
        <mxCell id="6HOrBpuACaCS4eQV2J5w-7" style="edgeStyle=orthogonalEdgeStyle;rounded=1;orthogonalLoop=1;jettySize=auto;html=1;exitX=0.5;exitY=1;exitDx=0;exitDy=0;entryX=0.5;entryY=0;entryDx=0;entryDy=0;" edge="1" parent="6HOrBpuACaCS4eQV2J5w-3" source="6HOrBpuACaCS4eQV2J5w-8" target="6HOrBpuACaCS4eQV2J5w-10">
          <mxGeometry relative="1" as="geometry" />
        </mxCell>
        <mxCell id="6HOrBpuACaCS4eQV2J5w-8" value="Start" style="rounded=1;whiteSpace=wrap;html=1;shadow=0;labelBackgroundColor=none;strokeWidth=1;fontFamily=Verdana;fontSize=8;align=center;" vertex="1" parent="6HOrBpuACaCS4eQV2J5w-3">
          <mxGeometry x="45" y="40" width="70" height="30" as="geometry" />
        </mxCell>
        <mxCell id="6HOrBpuACaCS4eQV2J5w-9" style="edgeStyle=orthogonalEdgeStyle;rounded=1;orthogonalLoop=1;jettySize=auto;html=1;exitX=0.5;exitY=1;exitDx=0;exitDy=0;entryX=0.5;entryY=0;entryDx=0;entryDy=0;" edge="1" parent="6HOrBpuACaCS4eQV2J5w-3" source="6HOrBpuACaCS4eQV2J5w-10">
          <mxGeometry relative="1" as="geometry">
            <mxPoint x="80" y="182" as="targetPoint" />
          </mxGeometry>
        </mxCell>
        <mxCell id="6HOrBpuACaCS4eQV2J5w-10" value="Homepage" style="rounded=1;whiteSpace=wrap;html=1;shadow=0;labelBackgroundColor=none;strokeWidth=1;fontFamily=Verdana;fontSize=8;align=center;" vertex="1" parent="6HOrBpuACaCS4eQV2J5w-3">
          <mxGeometry x="30" y="95" width="100" height="60" as="geometry" />
        </mxCell>
        <mxCell id="6HOrBpuACaCS4eQV2J5w-11" style="edgeStyle=orthogonalEdgeStyle;rounded=1;orthogonalLoop=1;jettySize=auto;html=1;exitX=0.5;exitY=1;exitDx=0;exitDy=0;" edge="1" parent="6HOrBpuACaCS4eQV2J5w-3" source="6HOrBpuACaCS4eQV2J5w-12" target="6HOrBpuACaCS4eQV2J5w-5">
          <mxGeometry relative="1" as="geometry" />
        </mxCell>
        <mxCell id="6HOrBpuACaCS4eQV2J5w-12" value="&lt;font style=&quot;font-size: 8px&quot; face=&quot;Verdana&quot;&gt;Sign in&lt;br&gt;&lt;/font&gt;" style="rhombus;whiteSpace=wrap;html=1;" vertex="1" parent="6HOrBpuACaCS4eQV2J5w-3">
          <mxGeometry x="40" y="180" width="80" height="80" as="geometry" />
        </mxCell>
        <mxCell id="6HOrBpuACaCS4eQV2J5w-13" style="edgeStyle=orthogonalEdgeStyle;rounded=1;orthogonalLoop=1;jettySize=auto;html=1;exitX=0.5;exitY=1;exitDx=0;exitDy=0;" edge="1" parent="6HOrBpuACaCS4eQV2J5w-3" source="6HOrBpuACaCS4eQV2J5w-14" target="6HOrBpuACaCS4eQV2J5w-6">
          <mxGeometry relative="1" as="geometry" />
        </mxCell>
        <mxCell id="6HOrBpuACaCS4eQV2J5w-14" value="Choice Proposal" style="rounded=1;whiteSpace=wrap;html=1;shadow=0;labelBackgroundColor=none;strokeWidth=1;fontFamily=Verdana;fontSize=8;align=center;" vertex="1" parent="6HOrBpuACaCS4eQV2J5w-3">
          <mxGeometry x="30" y="400" width="100" height="60" as="geometry" />
        </mxCell>
        <mxCell id="6HOrBpuACaCS4eQV2J5w-15" value="Lane 2" style="swimlane;html=1;startSize=20;fillColor=#dae8fc;strokeColor=#6c8ebf;" vertex="1" parent="6HOrBpuACaCS4eQV2J5w-0">
          <mxGeometry x="160" y="20" width="160" height="730" as="geometry" />
        </mxCell>
        <mxCell id="6HOrBpuACaCS4eQV2J5w-16" value="forget pass" style="rhombus;whiteSpace=wrap;html=1;rounded=0;shadow=0;labelBackgroundColor=none;strokeWidth=1;fontFamily=Verdana;fontSize=8;align=center;" vertex="1" parent="6HOrBpuACaCS4eQV2J5w-15">
          <mxGeometry x="40" y="190" width="80" height="60" as="geometry" />
        </mxCell>
        <mxCell id="6HOrBpuACaCS4eQV2J5w-17" value="Process" style="rhombus;whiteSpace=wrap;html=1;rounded=0;shadow=0;labelBackgroundColor=none;strokeWidth=1;fontFamily=Verdana;fontSize=8;align=center;" vertex="1" parent="6HOrBpuACaCS4eQV2J5w-15">
          <mxGeometry x="40" y="520" width="80" height="60" as="geometry" />
        </mxCell>
        <mxCell id="6HOrBpuACaCS4eQV2J5w-18" value="&lt;font style=&quot;font-size: 8px&quot; face=&quot;Verdana&quot;&gt;Order/Cancel&lt;/font&gt;" style="rhombus;whiteSpace=wrap;html=1;" vertex="1" parent="6HOrBpuACaCS4eQV2J5w-15">
          <mxGeometry x="40" y="625" width="80" height="70" as="geometry" />
        </mxCell>
        <mxCell id="6HOrBpuACaCS4eQV2J5w-19" value="Confrm by email" style="rounded=1;whiteSpace=wrap;html=1;shadow=0;labelBackgroundColor=none;strokeWidth=1;fontFamily=Verdana;fontSize=8;align=center;" vertex="1" parent="6HOrBpuACaCS4eQV2J5w-15">
          <mxGeometry x="30" y="360" width="100" height="60" as="geometry" />
        </mxCell>
        <mxCell id="6HOrBpuACaCS4eQV2J5w-20" style="edgeStyle=orthogonalEdgeStyle;rounded=1;orthogonalLoop=1;jettySize=auto;html=1;exitX=0.5;exitY=1;exitDx=0;exitDy=0;entryX=0.5;entryY=0;entryDx=0;entryDy=0;" edge="1" parent="6HOrBpuACaCS4eQV2J5w-15" source="6HOrBpuACaCS4eQV2J5w-21" target="6HOrBpuACaCS4eQV2J5w-19">
          <mxGeometry relative="1" as="geometry">
            <Array as="points">
              <mxPoint x="70" y="150" />
              <mxPoint x="130" y="150" />
              <mxPoint x="130" y="300" />
              <mxPoint x="80" y="300" />
            </Array>
          </mxGeometry>
        </mxCell>
        <mxCell id="6HOrBpuACaCS4eQV2J5w-21" value="Register" style="rounded=1;whiteSpace=wrap;html=1;shadow=0;labelBackgroundColor=none;strokeWidth=1;fontFamily=Verdana;fontSize=8;align=center;" vertex="1" parent="6HOrBpuACaCS4eQV2J5w-15">
          <mxGeometry x="20" y="80" width="100" height="60" as="geometry" />
        </mxCell>
        <mxCell id="6HOrBpuACaCS4eQV2J5w-22" value="Lane 3" style="swimlane;html=1;startSize=20;fillColor=#dae8fc;strokeColor=#6c8ebf;" vertex="1" parent="6HOrBpuACaCS4eQV2J5w-0">
          <mxGeometry x="320" y="20" width="160" height="730" as="geometry" />
        </mxCell>
        <mxCell id="6HOrBpuACaCS4eQV2J5w-23" value="N" style="text;html=1;align=center;verticalAlign=middle;resizable=0;points=[];autosize=1;" vertex="1" parent="6HOrBpuACaCS4eQV2J5w-22">
          <mxGeometry x="22.5" y="160" width="20" height="20" as="geometry" />
        </mxCell>
        <mxCell id="6HOrBpuACaCS4eQV2J5w-24" value="Y" style="text;html=1;align=center;verticalAlign=middle;resizable=0;points=[];autosize=1;" vertex="1" parent="6HOrBpuACaCS4eQV2J5w-22">
          <mxGeometry x="60" y="434" width="20" height="20" as="geometry" />
        </mxCell>
        <mxCell id="6HOrBpuACaCS4eQV2J5w-25" value="Payment Methode" style="rounded=1;whiteSpace=wrap;html=1;shadow=0;labelBackgroundColor=none;strokeWidth=1;fontFamily=Verdana;fontSize=8;align=center;" vertex="1" parent="6HOrBpuACaCS4eQV2J5w-22">
          <mxGeometry x="32.5" y="70" width="100" height="60" as="geometry" />
        </mxCell>
        <mxCell id="6HOrBpuACaCS4eQV2J5w-26" style="edgeStyle=orthogonalEdgeStyle;rounded=1;html=1;labelBackgroundColor=none;startArrow=none;startFill=0;startSize=5;endArrow=classicThin;endFill=1;endSize=5;jettySize=auto;orthogonalLoop=1;strokeColor=#000000;strokeWidth=1;fontFamily=Verdana;fontSize=8;fontColor=#000000;" edge="1" parent="6HOrBpuACaCS4eQV2J5w-22" source="6HOrBpuACaCS4eQV2J5w-25" target="6HOrBpuACaCS4eQV2J5w-28">
          <mxGeometry relative="1" as="geometry" />
        </mxCell>
        <mxCell id="6HOrBpuACaCS4eQV2J5w-27" style="edgeStyle=orthogonalEdgeStyle;rounded=1;orthogonalLoop=1;jettySize=auto;html=1;exitX=0.5;exitY=1;exitDx=0;exitDy=0;entryX=0.5;entryY=0;entryDx=0;entryDy=0;" edge="1" parent="6HOrBpuACaCS4eQV2J5w-22" source="6HOrBpuACaCS4eQV2J5w-28" target="6HOrBpuACaCS4eQV2J5w-30">
          <mxGeometry relative="1" as="geometry" />
        </mxCell>
        <mxCell id="6HOrBpuACaCS4eQV2J5w-28" value="Next/Cancel" style="rhombus;whiteSpace=wrap;html=1;rounded=0;shadow=0;labelBackgroundColor=none;strokeWidth=1;fontFamily=Verdana;fontSize=8;align=center;" vertex="1" parent="6HOrBpuACaCS4eQV2J5w-22">
          <mxGeometry x="42.5" y="156" width="80" height="60" as="geometry" />
        </mxCell>
        <mxCell id="6HOrBpuACaCS4eQV2J5w-29" style="edgeStyle=orthogonalEdgeStyle;rounded=1;orthogonalLoop=1;jettySize=auto;html=1;exitX=0.5;exitY=1;exitDx=0;exitDy=0;entryX=0.5;entryY=0;entryDx=0;entryDy=0;" edge="1" parent="6HOrBpuACaCS4eQV2J5w-22" source="6HOrBpuACaCS4eQV2J5w-30" target="6HOrBpuACaCS4eQV2J5w-38">
          <mxGeometry relative="1" as="geometry" />
        </mxCell>
        <mxCell id="6HOrBpuACaCS4eQV2J5w-30" value="&lt;font style=&quot;font-size: 8px&quot; face=&quot;Verdana&quot;&gt;OTP&lt;/font&gt;" style="shape=process;whiteSpace=wrap;html=1;backgroundOutline=1;" vertex="1" parent="6HOrBpuACaCS4eQV2J5w-22">
          <mxGeometry x="30" y="240" width="105" height="50" as="geometry" />
        </mxCell>
        <mxCell id="6HOrBpuACaCS4eQV2J5w-31" value="Request Order" style="rounded=1;whiteSpace=wrap;html=1;shadow=0;labelBackgroundColor=none;strokeWidth=1;fontFamily=Verdana;fontSize=8;align=center;" vertex="1" parent="6HOrBpuACaCS4eQV2J5w-22">
          <mxGeometry x="32.5" y="420" width="100" height="60" as="geometry" />
        </mxCell>
        <mxCell id="6HOrBpuACaCS4eQV2J5w-32" style="edgeStyle=orthogonalEdgeStyle;rounded=1;orthogonalLoop=1;jettySize=auto;html=1;exitX=0.5;exitY=1;exitDx=0;exitDy=0;entryX=0.5;entryY=0;entryDx=0;entryDy=0;" edge="1" parent="6HOrBpuACaCS4eQV2J5w-22" source="6HOrBpuACaCS4eQV2J5w-33" target="6HOrBpuACaCS4eQV2J5w-40">
          <mxGeometry relative="1" as="geometry" />
        </mxCell>
        <mxCell id="6HOrBpuACaCS4eQV2J5w-33" value="Confrm by email" style="rounded=1;whiteSpace=wrap;html=1;shadow=0;labelBackgroundColor=none;strokeWidth=1;fontFamily=Verdana;fontSize=8;align=center;" vertex="1" parent="6HOrBpuACaCS4eQV2J5w-22">
          <mxGeometry x="32.5" y="500" width="100" height="60" as="geometry" />
        </mxCell>
        <mxCell id="6HOrBpuACaCS4eQV2J5w-34" style="edgeStyle=orthogonalEdgeStyle;rounded=1;html=1;labelBackgroundColor=none;startArrow=none;startFill=0;startSize=5;endArrow=classicThin;endFill=1;endSize=5;jettySize=auto;orthogonalLoop=1;strokeWidth=1;fontFamily=Verdana;fontSize=8" edge="1" parent="6HOrBpuACaCS4eQV2J5w-22" source="6HOrBpuACaCS4eQV2J5w-31" target="6HOrBpuACaCS4eQV2J5w-33">
          <mxGeometry relative="1" as="geometry" />
        </mxCell>
        <mxCell id="6HOrBpuACaCS4eQV2J5w-35" value="Y" style="text;html=1;align=center;verticalAlign=middle;resizable=0;points=[];autosize=1;" vertex="1" parent="6HOrBpuACaCS4eQV2J5w-22">
          <mxGeometry x="50" y="210" width="20" height="20" as="geometry" />
        </mxCell>
        <mxCell id="6HOrBpuACaCS4eQV2J5w-36" style="edgeStyle=orthogonalEdgeStyle;rounded=1;orthogonalLoop=1;jettySize=auto;html=1;exitX=1;exitY=0.5;exitDx=0;exitDy=0;entryX=1;entryY=0.5;entryDx=0;entryDy=0;" edge="1" parent="6HOrBpuACaCS4eQV2J5w-22" source="6HOrBpuACaCS4eQV2J5w-38" target="6HOrBpuACaCS4eQV2J5w-25">
          <mxGeometry relative="1" as="geometry" />
        </mxCell>
        <mxCell id="6HOrBpuACaCS4eQV2J5w-37" style="edgeStyle=orthogonalEdgeStyle;rounded=1;orthogonalLoop=1;jettySize=auto;html=1;exitX=0.5;exitY=1;exitDx=0;exitDy=0;entryX=0.5;entryY=0;entryDx=0;entryDy=0;" edge="1" parent="6HOrBpuACaCS4eQV2J5w-22" source="6HOrBpuACaCS4eQV2J5w-38" target="6HOrBpuACaCS4eQV2J5w-31">
          <mxGeometry relative="1" as="geometry" />
        </mxCell>
        <mxCell id="6HOrBpuACaCS4eQV2J5w-38" value="&lt;font style=&quot;font-size: 8px&quot; face=&quot;Verdana&quot;&gt;Fail&lt;/font&gt;" style="rhombus;whiteSpace=wrap;html=1;" vertex="1" parent="6HOrBpuACaCS4eQV2J5w-22">
          <mxGeometry x="45" y="320" width="77.5" height="70" as="geometry" />
        </mxCell>
        <mxCell id="6HOrBpuACaCS4eQV2J5w-39" value="N" style="text;html=1;align=center;verticalAlign=middle;resizable=0;points=[];autosize=1;" vertex="1" parent="6HOrBpuACaCS4eQV2J5w-22">
          <mxGeometry x="60" y="380" width="20" height="20" as="geometry" />
        </mxCell>
        <mxCell id="6HOrBpuACaCS4eQV2J5w-40" value="&lt;font style=&quot;font-size: 8px&quot; face=&quot;Verdana&quot;&gt;Order details&lt;br&gt;&lt;/font&gt;" style="shape=parallelogram;perimeter=parallelogramPerimeter;whiteSpace=wrap;html=1;fixedSize=1;" vertex="1" parent="6HOrBpuACaCS4eQV2J5w-22">
          <mxGeometry x="33.75" y="580" width="100" height="50" as="geometry" />
        </mxCell>
        <mxCell id="6HOrBpuACaCS4eQV2J5w-41" value="Lane 4" style="swimlane;html=1;startSize=20;fillColor=#dae8fc;strokeColor=#6c8ebf;" vertex="1" parent="6HOrBpuACaCS4eQV2J5w-0">
          <mxGeometry x="480" y="20" width="160" height="730" as="geometry" />
        </mxCell>
        <mxCell id="6HOrBpuACaCS4eQV2J5w-42" style="edgeStyle=orthogonalEdgeStyle;rounded=1;orthogonalLoop=1;jettySize=auto;html=1;exitX=0.5;exitY=1;exitDx=0;exitDy=0;entryX=0.5;entryY=0;entryDx=0;entryDy=0;" edge="1" parent="6HOrBpuACaCS4eQV2J5w-41" source="6HOrBpuACaCS4eQV2J5w-43" target="6HOrBpuACaCS4eQV2J5w-45">
          <mxGeometry relative="1" as="geometry" />
        </mxCell>
        <mxCell id="6HOrBpuACaCS4eQV2J5w-43" value="Daytime Progress" style="rounded=1;whiteSpace=wrap;html=1;shadow=0;labelBackgroundColor=none;strokeWidth=1;fontFamily=Verdana;fontSize=8;align=center;" vertex="1" parent="6HOrBpuACaCS4eQV2J5w-41">
          <mxGeometry x="40" y="70" width="100" height="60" as="geometry" />
        </mxCell>
        <mxCell id="6HOrBpuACaCS4eQV2J5w-44" style="edgeStyle=orthogonalEdgeStyle;rounded=1;orthogonalLoop=1;jettySize=auto;html=1;entryX=0.5;entryY=0;entryDx=0;entryDy=0;" edge="1" parent="6HOrBpuACaCS4eQV2J5w-41" source="6HOrBpuACaCS4eQV2J5w-45" target="6HOrBpuACaCS4eQV2J5w-47">
          <mxGeometry relative="1" as="geometry" />
        </mxCell>
        <mxCell id="6HOrBpuACaCS4eQV2J5w-45" value="&lt;font style=&quot;font-size: 8px&quot; face=&quot;Verdana&quot;&gt;Proposal from Seller&lt;br&gt;&lt;/font&gt;" style="shape=document;whiteSpace=wrap;html=1;boundedLbl=1;" vertex="1" parent="6HOrBpuACaCS4eQV2J5w-41">
          <mxGeometry x="45" y="163" width="90" height="60" as="geometry" />
        </mxCell>
        <mxCell id="6HOrBpuACaCS4eQV2J5w-46" style="edgeStyle=orthogonalEdgeStyle;rounded=1;orthogonalLoop=1;jettySize=auto;html=1;exitX=0.5;exitY=1;exitDx=0;exitDy=0;entryX=0.5;entryY=0;entryDx=0;entryDy=0;" edge="1" parent="6HOrBpuACaCS4eQV2J5w-41" source="6HOrBpuACaCS4eQV2J5w-47" target="6HOrBpuACaCS4eQV2J5w-49">
          <mxGeometry relative="1" as="geometry" />
        </mxCell>
        <mxCell id="6HOrBpuACaCS4eQV2J5w-47" value="Request Revisi" style="rounded=1;whiteSpace=wrap;html=1;shadow=0;labelBackgroundColor=none;strokeWidth=1;fontFamily=Verdana;fontSize=8;align=center;" vertex="1" parent="6HOrBpuACaCS4eQV2J5w-41">
          <mxGeometry x="40" y="250" width="100" height="60" as="geometry" />
        </mxCell>
        <mxCell id="6HOrBpuACaCS4eQV2J5w-48" style="edgeStyle=orthogonalEdgeStyle;rounded=1;orthogonalLoop=1;jettySize=auto;html=1;exitX=0.5;exitY=1;exitDx=0;exitDy=0;entryX=0.5;entryY=0;entryDx=0;entryDy=0;" edge="1" parent="6HOrBpuACaCS4eQV2J5w-41" source="6HOrBpuACaCS4eQV2J5w-49" target="6HOrBpuACaCS4eQV2J5w-51">
          <mxGeometry relative="1" as="geometry" />
        </mxCell>
        <mxCell id="6HOrBpuACaCS4eQV2J5w-49" value="Get Proposal from Seller" style="rounded=1;whiteSpace=wrap;html=1;shadow=0;labelBackgroundColor=none;strokeWidth=1;fontFamily=Verdana;fontSize=8;align=center;" vertex="1" parent="6HOrBpuACaCS4eQV2J5w-41">
          <mxGeometry x="40" y="335" width="100" height="60" as="geometry" />
        </mxCell>
        <mxCell id="6HOrBpuACaCS4eQV2J5w-50" style="edgeStyle=orthogonalEdgeStyle;rounded=1;orthogonalLoop=1;jettySize=auto;html=1;exitX=0.5;exitY=1;exitDx=0;exitDy=0;entryX=0.5;entryY=0;entryDx=0;entryDy=0;" edge="1" parent="6HOrBpuACaCS4eQV2J5w-41" source="6HOrBpuACaCS4eQV2J5w-51" target="6HOrBpuACaCS4eQV2J5w-52">
          <mxGeometry relative="1" as="geometry" />
        </mxCell>
        <mxCell id="6HOrBpuACaCS4eQV2J5w-51" value="Submit A Review Seller" style="rounded=1;whiteSpace=wrap;html=1;shadow=0;labelBackgroundColor=none;strokeWidth=1;fontFamily=Verdana;fontSize=8;align=center;" vertex="1" parent="6HOrBpuACaCS4eQV2J5w-41">
          <mxGeometry x="40" y="420" width="100" height="60" as="geometry" />
        </mxCell>
        <mxCell id="6HOrBpuACaCS4eQV2J5w-52" value="End" style="rounded=1;whiteSpace=wrap;html=1;shadow=0;labelBackgroundColor=none;strokeWidth=1;fontFamily=Verdana;fontSize=8;align=center;" vertex="1" parent="6HOrBpuACaCS4eQV2J5w-41">
          <mxGeometry x="40" y="510" width="100" height="60" as="geometry" />
        </mxCell>
        <mxCell id="6HOrBpuACaCS4eQV2J5w-53" style="edgeStyle=orthogonalEdgeStyle;rounded=1;orthogonalLoop=1;jettySize=auto;html=1;exitX=0;exitY=0.5;exitDx=0;exitDy=0;entryX=1;entryY=0.5;entryDx=0;entryDy=0;" edge="1" parent="6HOrBpuACaCS4eQV2J5w-0" source="6HOrBpuACaCS4eQV2J5w-28" target="6HOrBpuACaCS4eQV2J5w-5">
          <mxGeometry relative="1" as="geometry">
            <Array as="points">
              <mxPoint x="330" y="206" />
              <mxPoint x="330" y="350" />
            </Array>
          </mxGeometry>
        </mxCell>
        <mxCell id="6HOrBpuACaCS4eQV2J5w-54" style="edgeStyle=orthogonalEdgeStyle;rounded=1;orthogonalLoop=1;jettySize=auto;html=1;entryX=0.5;entryY=0;entryDx=0;entryDy=0;" edge="1" parent="6HOrBpuACaCS4eQV2J5w-0" target="6HOrBpuACaCS4eQV2J5w-18">
          <mxGeometry relative="1" as="geometry">
            <mxPoint x="364" y="625" as="sourcePoint" />
          </mxGeometry>
        </mxCell>
        <mxCell id="6HOrBpuACaCS4eQV2J5w-55" style="edgeStyle=orthogonalEdgeStyle;rounded=1;orthogonalLoop=1;jettySize=auto;html=1;exitX=0.5;exitY=1;exitDx=0;exitDy=0;entryX=0.5;entryY=0;entryDx=0;entryDy=0;" edge="1" parent="6HOrBpuACaCS4eQV2J5w-0" source="6HOrBpuACaCS4eQV2J5w-40" target="6HOrBpuACaCS4eQV2J5w-43">
          <mxGeometry relative="1" as="geometry">
            <Array as="points">
              <mxPoint x="404" y="670" />
              <mxPoint x="500" y="670" />
              <mxPoint x="500" y="70" />
              <mxPoint x="570" y="70" />
            </Array>
          </mxGeometry>
        </mxCell>
        <mxCell id="6HOrBpuACaCS4eQV2J5w-56" style="edgeStyle=orthogonalEdgeStyle;rounded=1;orthogonalLoop=1;jettySize=auto;html=1;exitX=1;exitY=0.5;exitDx=0;exitDy=0;entryX=0;entryY=0.5;entryDx=0;entryDy=0;" edge="1" parent="6HOrBpuACaCS4eQV2J5w-0" source="6HOrBpuACaCS4eQV2J5w-12" target="6HOrBpuACaCS4eQV2J5w-21">
          <mxGeometry relative="1" as="geometry" />
        </mxCell>
        <mxCell id="6HOrBpuACaCS4eQV2J5w-57" style="edgeStyle=orthogonalEdgeStyle;rounded=1;orthogonalLoop=1;jettySize=auto;html=1;exitX=1;exitY=0.5;exitDx=0;exitDy=0;entryX=0;entryY=0.5;entryDx=0;entryDy=0;" edge="1" parent="6HOrBpuACaCS4eQV2J5w-0" source="6HOrBpuACaCS4eQV2J5w-12" target="6HOrBpuACaCS4eQV2J5w-16">
          <mxGeometry relative="1" as="geometry" />
        </mxCell>
        <mxCell id="6HOrBpuACaCS4eQV2J5w-58" style="edgeStyle=orthogonalEdgeStyle;rounded=1;orthogonalLoop=1;jettySize=auto;html=1;exitX=0;exitY=0.5;exitDx=0;exitDy=0;entryX=1;entryY=0.5;entryDx=0;entryDy=0;" edge="1" parent="6HOrBpuACaCS4eQV2J5w-0" source="6HOrBpuACaCS4eQV2J5w-18" target="6HOrBpuACaCS4eQV2J5w-6">
          <mxGeometry relative="1" as="geometry" />
        </mxCell>
        <mxCell id="6HOrBpuACaCS4eQV2J5w-59" value="Lane 5" style="swimlane;html=1;startSize=20;fillColor=#f8cecc;strokeColor=#b85450;" vertex="1" parent="6HOrBpuACaCS4eQV2J5w-0">
          <mxGeometry x="640" y="20" width="160" height="730" as="geometry" />
        </mxCell>
        <mxCell id="6HOrBpuACaCS4eQV2J5w-60" style="edgeStyle=orthogonalEdgeStyle;rounded=1;orthogonalLoop=1;jettySize=auto;html=1;exitX=0.5;exitY=1;exitDx=0;exitDy=0;entryX=0.5;entryY=0;entryDx=0;entryDy=0;" edge="1" parent="6HOrBpuACaCS4eQV2J5w-59" source="6HOrBpuACaCS4eQV2J5w-61" target="6HOrBpuACaCS4eQV2J5w-64">
          <mxGeometry relative="1" as="geometry" />
        </mxCell>
        <mxCell id="6HOrBpuACaCS4eQV2J5w-61" value="forget pass" style="rhombus;whiteSpace=wrap;html=1;rounded=0;shadow=0;labelBackgroundColor=none;strokeWidth=1;fontFamily=Verdana;fontSize=8;align=center;" vertex="1" parent="6HOrBpuACaCS4eQV2J5w-59">
          <mxGeometry x="30" y="180" width="80" height="60" as="geometry" />
        </mxCell>
        <mxCell id="6HOrBpuACaCS4eQV2J5w-62" style="edgeStyle=orthogonalEdgeStyle;rounded=1;orthogonalLoop=1;jettySize=auto;html=1;exitX=0.5;exitY=1;exitDx=0;exitDy=0;entryX=0;entryY=0.5;entryDx=0;entryDy=0;" edge="1" parent="6HOrBpuACaCS4eQV2J5w-59" source="6HOrBpuACaCS4eQV2J5w-63" target="6HOrBpuACaCS4eQV2J5w-64">
          <mxGeometry relative="1" as="geometry">
            <Array as="points">
              <mxPoint x="75" y="150" />
              <mxPoint x="10" y="150" />
              <mxPoint x="10" y="320" />
              <mxPoint x="20" y="320" />
            </Array>
          </mxGeometry>
        </mxCell>
        <mxCell id="6HOrBpuACaCS4eQV2J5w-63" value="Register" style="rounded=1;whiteSpace=wrap;html=1;shadow=0;labelBackgroundColor=none;strokeWidth=1;fontFamily=Verdana;fontSize=8;align=center;" vertex="1" parent="6HOrBpuACaCS4eQV2J5w-59">
          <mxGeometry x="25" y="70" width="100" height="60" as="geometry" />
        </mxCell>
        <mxCell id="6HOrBpuACaCS4eQV2J5w-64" value="Confrm by email" style="rounded=1;whiteSpace=wrap;html=1;shadow=0;labelBackgroundColor=none;strokeWidth=1;fontFamily=Verdana;fontSize=8;align=center;" vertex="1" parent="6HOrBpuACaCS4eQV2J5w-59">
          <mxGeometry x="20" y="270" width="100" height="60" as="geometry" />
        </mxCell>
        <mxCell id="6HOrBpuACaCS4eQV2J5w-65" value="&lt;font style=&quot;font-size: 8px&quot; face=&quot;Verdana&quot;&gt;Order Details&lt;br&gt;&lt;/font&gt;" style="rhombus;whiteSpace=wrap;html=1;" vertex="1" parent="6HOrBpuACaCS4eQV2J5w-59">
          <mxGeometry x="18" y="410" width="72" height="70" as="geometry" />
        </mxCell>
        <mxCell id="6HOrBpuACaCS4eQV2J5w-66" value="Proposal Cancel" style="rounded=1;whiteSpace=wrap;html=1;shadow=0;labelBackgroundColor=none;strokeWidth=1;fontFamily=Verdana;fontSize=8;align=center;" vertex="1" parent="6HOrBpuACaCS4eQV2J5w-59">
          <mxGeometry x="66" y="505" width="90" height="40" as="geometry" />
        </mxCell>
        <mxCell id="6HOrBpuACaCS4eQV2J5w-67" style="edgeStyle=orthogonalEdgeStyle;rounded=1;orthogonalLoop=1;jettySize=auto;html=1;exitX=0;exitY=0.5;exitDx=0;exitDy=0;entryX=1;entryY=0.5;entryDx=0;entryDy=0;" edge="1" parent="6HOrBpuACaCS4eQV2J5w-0" source="6HOrBpuACaCS4eQV2J5w-19" target="6HOrBpuACaCS4eQV2J5w-12">
          <mxGeometry relative="1" as="geometry" />
        </mxCell>
        <mxCell id="6HOrBpuACaCS4eQV2J5w-68" style="edgeStyle=orthogonalEdgeStyle;rounded=1;orthogonalLoop=1;jettySize=auto;html=1;exitX=0;exitY=0.5;exitDx=0;exitDy=0;entryX=1;entryY=0.5;entryDx=0;entryDy=0;" edge="1" parent="6HOrBpuACaCS4eQV2J5w-0" source="6HOrBpuACaCS4eQV2J5w-78" target="6HOrBpuACaCS4eQV2J5w-63">
          <mxGeometry relative="1" as="geometry" />
        </mxCell>
        <mxCell id="6HOrBpuACaCS4eQV2J5w-69" style="edgeStyle=orthogonalEdgeStyle;rounded=1;orthogonalLoop=1;jettySize=auto;html=1;exitX=0;exitY=0.5;exitDx=0;exitDy=0;entryX=1;entryY=0.5;entryDx=0;entryDy=0;" edge="1" parent="6HOrBpuACaCS4eQV2J5w-0" source="6HOrBpuACaCS4eQV2J5w-78" target="6HOrBpuACaCS4eQV2J5w-61">
          <mxGeometry relative="1" as="geometry" />
        </mxCell>
        <mxCell id="6HOrBpuACaCS4eQV2J5w-70" style="edgeStyle=orthogonalEdgeStyle;rounded=1;orthogonalLoop=1;jettySize=auto;html=1;exitX=1;exitY=0.5;exitDx=0;exitDy=0;entryX=0;entryY=0.5;entryDx=0;entryDy=0;" edge="1" parent="6HOrBpuACaCS4eQV2J5w-0" source="6HOrBpuACaCS4eQV2J5w-64" target="6HOrBpuACaCS4eQV2J5w-78">
          <mxGeometry relative="1" as="geometry" />
        </mxCell>
        <mxCell id="6HOrBpuACaCS4eQV2J5w-71" style="edgeStyle=orthogonalEdgeStyle;rounded=1;orthogonalLoop=1;jettySize=auto;html=1;exitX=1;exitY=0.5;exitDx=0;exitDy=0;entryX=0;entryY=0.5;entryDx=0;entryDy=0;" edge="1" parent="6HOrBpuACaCS4eQV2J5w-0" source="6HOrBpuACaCS4eQV2J5w-65" target="6HOrBpuACaCS4eQV2J5w-81">
          <mxGeometry relative="1" as="geometry" />
        </mxCell>
        <mxCell id="6HOrBpuACaCS4eQV2J5w-72" style="edgeStyle=orthogonalEdgeStyle;rounded=1;orthogonalLoop=1;jettySize=auto;html=1;exitX=0.5;exitY=1;exitDx=0;exitDy=0;entryX=0.5;entryY=0;entryDx=0;entryDy=0;" edge="1" parent="6HOrBpuACaCS4eQV2J5w-0" source="6HOrBpuACaCS4eQV2J5w-79" target="6HOrBpuACaCS4eQV2J5w-65">
          <mxGeometry relative="1" as="geometry">
            <Array as="points">
              <mxPoint x="880" y="360" />
              <mxPoint x="694" y="360" />
            </Array>
          </mxGeometry>
        </mxCell>
        <mxCell id="6HOrBpuACaCS4eQV2J5w-73" value="Lane 6" style="swimlane;html=1;startSize=20;fillColor=#f8cecc;strokeColor=#b85450;" vertex="1" parent="6HOrBpuACaCS4eQV2J5w-0">
          <mxGeometry x="800" y="20" width="170" height="730" as="geometry" />
        </mxCell>
        <mxCell id="6HOrBpuACaCS4eQV2J5w-74" style="edgeStyle=orthogonalEdgeStyle;rounded=1;orthogonalLoop=1;jettySize=auto;html=1;exitX=0.5;exitY=1;exitDx=0;exitDy=0;entryX=0.5;entryY=0;entryDx=0;entryDy=0;" edge="1" parent="6HOrBpuACaCS4eQV2J5w-73" source="6HOrBpuACaCS4eQV2J5w-75" target="6HOrBpuACaCS4eQV2J5w-78">
          <mxGeometry relative="1" as="geometry" />
        </mxCell>
        <mxCell id="6HOrBpuACaCS4eQV2J5w-75" value="Homepage" style="rounded=1;whiteSpace=wrap;html=1;shadow=0;labelBackgroundColor=none;strokeWidth=1;fontFamily=Verdana;fontSize=8;align=center;" vertex="1" parent="6HOrBpuACaCS4eQV2J5w-73">
          <mxGeometry x="30" y="30" width="100" height="40" as="geometry" />
        </mxCell>
        <mxCell id="6HOrBpuACaCS4eQV2J5w-76" value="User" style="rounded=1;whiteSpace=wrap;html=1;shadow=0;labelBackgroundColor=none;strokeWidth=1;fontFamily=Verdana;fontSize=8;align=center;" vertex="1" parent="6HOrBpuACaCS4eQV2J5w-73">
          <mxGeometry x="30" y="203" width="100" height="37" as="geometry" />
        </mxCell>
        <mxCell id="6HOrBpuACaCS4eQV2J5w-77" style="edgeStyle=orthogonalEdgeStyle;rounded=1;orthogonalLoop=1;jettySize=auto;html=1;exitX=0.5;exitY=1;exitDx=0;exitDy=0;entryX=0.5;entryY=0;entryDx=0;entryDy=0;" edge="1" parent="6HOrBpuACaCS4eQV2J5w-73" source="6HOrBpuACaCS4eQV2J5w-78" target="6HOrBpuACaCS4eQV2J5w-76">
          <mxGeometry relative="1" as="geometry" />
        </mxCell>
        <mxCell id="6HOrBpuACaCS4eQV2J5w-78" value="&lt;font style=&quot;font-size: 8px&quot; face=&quot;Verdana&quot;&gt;Sign in&lt;br&gt;&lt;/font&gt;" style="rhombus;whiteSpace=wrap;html=1;" vertex="1" parent="6HOrBpuACaCS4eQV2J5w-73">
          <mxGeometry x="40" y="97" width="80" height="80" as="geometry" />
        </mxCell>
        <mxCell id="6HOrBpuACaCS4eQV2J5w-79" value="Cek Notif Order" style="rounded=1;whiteSpace=wrap;html=1;shadow=0;labelBackgroundColor=none;strokeWidth=1;fontFamily=Verdana;fontSize=8;align=center;" vertex="1" parent="6HOrBpuACaCS4eQV2J5w-73">
          <mxGeometry x="30" y="261" width="100" height="60" as="geometry" />
        </mxCell>
        <mxCell id="6HOrBpuACaCS4eQV2J5w-80" style="edgeStyle=orthogonalEdgeStyle;rounded=1;orthogonalLoop=1;jettySize=auto;html=1;exitX=0.5;exitY=1;exitDx=0;exitDy=0;entryX=0.5;entryY=0;entryDx=0;entryDy=0;" edge="1" parent="6HOrBpuACaCS4eQV2J5w-73" source="6HOrBpuACaCS4eQV2J5w-81" target="6HOrBpuACaCS4eQV2J5w-83">
          <mxGeometry relative="1" as="geometry" />
        </mxCell>
        <mxCell id="6HOrBpuACaCS4eQV2J5w-81" value="Waiting Respone Buyer" style="rounded=1;whiteSpace=wrap;html=1;shadow=0;labelBackgroundColor=none;strokeWidth=1;fontFamily=Verdana;fontSize=8;align=center;" vertex="1" parent="6HOrBpuACaCS4eQV2J5w-73">
          <mxGeometry x="40" y="350" width="100" height="45" as="geometry" />
        </mxCell>
        <mxCell id="6HOrBpuACaCS4eQV2J5w-82" style="edgeStyle=orthogonalEdgeStyle;rounded=1;orthogonalLoop=1;jettySize=auto;html=1;exitX=0.5;exitY=1;exitDx=0;exitDy=0;entryX=0.5;entryY=0;entryDx=0;entryDy=0;" edge="1" parent="6HOrBpuACaCS4eQV2J5w-73" source="6HOrBpuACaCS4eQV2J5w-83" target="6HOrBpuACaCS4eQV2J5w-90">
          <mxGeometry relative="1" as="geometry" />
        </mxCell>
        <mxCell id="6HOrBpuACaCS4eQV2J5w-83" value="Daytime Progress" style="rounded=1;whiteSpace=wrap;html=1;shadow=0;labelBackgroundColor=none;strokeWidth=1;fontFamily=Verdana;fontSize=8;align=center;" vertex="1" parent="6HOrBpuACaCS4eQV2J5w-73">
          <mxGeometry x="40" y="420" width="100" height="40" as="geometry" />
        </mxCell>
        <mxCell id="6HOrBpuACaCS4eQV2J5w-84" style="edgeStyle=orthogonalEdgeStyle;rounded=1;orthogonalLoop=1;jettySize=auto;html=1;exitX=0.5;exitY=1;exitDx=0;exitDy=0;entryX=0.5;entryY=0;entryDx=0;entryDy=0;" edge="1" parent="6HOrBpuACaCS4eQV2J5w-73" source="6HOrBpuACaCS4eQV2J5w-85" target="6HOrBpuACaCS4eQV2J5w-87">
          <mxGeometry relative="1" as="geometry" />
        </mxCell>
        <mxCell id="6HOrBpuACaCS4eQV2J5w-85" value="Send Proposal to Buyer" style="rounded=1;whiteSpace=wrap;html=1;shadow=0;labelBackgroundColor=none;strokeWidth=1;fontFamily=Verdana;fontSize=8;align=center;" vertex="1" parent="6HOrBpuACaCS4eQV2J5w-73">
          <mxGeometry x="40" y="577" width="100" height="42" as="geometry" />
        </mxCell>
        <mxCell id="6HOrBpuACaCS4eQV2J5w-86" style="edgeStyle=orthogonalEdgeStyle;rounded=1;orthogonalLoop=1;jettySize=auto;html=1;exitX=0.5;exitY=1;exitDx=0;exitDy=0;entryX=0.5;entryY=0;entryDx=0;entryDy=0;" edge="1" parent="6HOrBpuACaCS4eQV2J5w-73" source="6HOrBpuACaCS4eQV2J5w-87" target="6HOrBpuACaCS4eQV2J5w-88">
          <mxGeometry relative="1" as="geometry" />
        </mxCell>
        <mxCell id="6HOrBpuACaCS4eQV2J5w-87" value="Submit A Review Seller" style="rounded=1;whiteSpace=wrap;html=1;shadow=0;labelBackgroundColor=none;strokeWidth=1;fontFamily=Verdana;fontSize=8;align=center;" vertex="1" parent="6HOrBpuACaCS4eQV2J5w-73">
          <mxGeometry x="40" y="636" width="100" height="40" as="geometry" />
        </mxCell>
        <mxCell id="6HOrBpuACaCS4eQV2J5w-88" value="End" style="rounded=1;whiteSpace=wrap;html=1;shadow=0;labelBackgroundColor=none;strokeWidth=1;fontFamily=Verdana;fontSize=8;align=center;" vertex="1" parent="6HOrBpuACaCS4eQV2J5w-73">
          <mxGeometry x="50" y="700" width="82.5" height="26" as="geometry" />
        </mxCell>
        <mxCell id="6HOrBpuACaCS4eQV2J5w-89" style="edgeStyle=orthogonalEdgeStyle;rounded=1;orthogonalLoop=1;jettySize=auto;html=1;exitX=0.5;exitY=1;exitDx=0;exitDy=0;entryX=0.5;entryY=0;entryDx=0;entryDy=0;" edge="1" parent="6HOrBpuACaCS4eQV2J5w-73" source="6HOrBpuACaCS4eQV2J5w-90" target="6HOrBpuACaCS4eQV2J5w-85">
          <mxGeometry relative="1" as="geometry" />
        </mxCell>
        <mxCell id="6HOrBpuACaCS4eQV2J5w-90" value="&lt;font style=&quot;font-size: 8px&quot; face=&quot;Verdana&quot;&gt;Respone Seller&lt;br&gt;&lt;/font&gt;" style="rhombus;whiteSpace=wrap;html=1;" vertex="1" parent="6HOrBpuACaCS4eQV2J5w-73">
          <mxGeometry x="55" y="490" width="70" height="70" as="geometry" />
        </mxCell>
        <mxCell id="6HOrBpuACaCS4eQV2J5w-91" style="edgeStyle=orthogonalEdgeStyle;rounded=1;orthogonalLoop=1;jettySize=auto;html=1;exitX=0;exitY=0.5;exitDx=0;exitDy=0;entryX=1;entryY=0.5;entryDx=0;entryDy=0;" edge="1" parent="6HOrBpuACaCS4eQV2J5w-0" source="6HOrBpuACaCS4eQV2J5w-90" target="6HOrBpuACaCS4eQV2J5w-66">
          <mxGeometry relative="1" as="geometry" />
        </mxCell>
        <mxCell id="6HOrBpuACaCS4eQV2J5w-92" style="edgeStyle=orthogonalEdgeStyle;rounded=1;orthogonalLoop=1;jettySize=auto;html=1;exitX=0;exitY=0.5;exitDx=0;exitDy=0;entryX=1;entryY=0.5;entryDx=0;entryDy=0;" edge="1" parent="6HOrBpuACaCS4eQV2J5w-0" source="6HOrBpuACaCS4eQV2J5w-85" target="6HOrBpuACaCS4eQV2J5w-45">
          <mxGeometry relative="1" as="geometry">
            <Array as="points">
              <mxPoint x="630" y="618" />
              <mxPoint x="630" y="213" />
            </Array>
          </mxGeometry>
        </mxCell>
        <mxCell id="6HOrBpuACaCS4eQV2J5w-93" style="edgeStyle=orthogonalEdgeStyle;rounded=1;orthogonalLoop=1;jettySize=auto;html=1;exitX=0.5;exitY=1;exitDx=0;exitDy=0;entryX=1;entryY=0.5;entryDx=0;entryDy=0;" edge="1" parent="6HOrBpuACaCS4eQV2J5w-0" source="6HOrBpuACaCS4eQV2J5w-65" target="6HOrBpuACaCS4eQV2J5w-18">
          <mxGeometry relative="1" as="geometry" />
        </mxCell>
        <mxCell id="6HOrBpuACaCS4eQV2J5w-94" value="Y" style="text;html=1;align=center;verticalAlign=middle;resizable=0;points=[];autosize=1;" vertex="1" parent="L0yQjiYWwsw-UEJJT2-9-1">
          <mxGeometry x="500" y="390" width="20" height="20" as="geometry" />
        </mxCell>
        <mxCell id="6HOrBpuACaCS4eQV2J5w-95" value="Y" style="text;html=1;align=center;verticalAlign=middle;resizable=0;points=[];autosize=1;" vertex="1" parent="L0yQjiYWwsw-UEJJT2-9-1">
          <mxGeometry x="250" y="690" width="20" height="20" as="geometry" />
        </mxCell>
      </root>
    </mxGraphModel>
  </diagram>
</mxfile>
